<?xml version="1.0" standalone="no"?>
<!DOCTYPE svg PUBLIC "-//W3C//DTD SVG 20010904//EN"
 "http://www.w3.org/TR/2001/REC-SVG-20010904/DTD/svg10.dtd">
<svg version="1.0" xmlns="http://www.w3.org/2000/svg"
 width="612.000000pt" height="612.000000pt" viewBox="0 0 612.000000 612.000000"
 preserveAspectRatio="xMidYMid meet">
<metadata>
Created by potrace 1.14, written by Peter Selinger 2001-2017
</metadata>
<g transform="translate(0.000000,612.000000) scale(0.100000,-0.100000)"
fill="#000000" stroke="none">
<path d="M3029 5466 c-4 -4 -103 -17 -154 -19 -16 -1 -33 -6 -37 -12 -5 -6 -8
-5 -8 4 0 9 -4 10 -12 3 -7 -5 -23 -8 -36 -6 -15 3 -21 0 -16 -7 4 -8 0 -8
-15 0 -13 7 -21 8 -21 2 0 -6 -16 -8 -35 -7 -19 2 -38 0 -40 -5 -3 -4 -13 -5
-22 -2 -12 5 -14 3 -8 -8 8 -12 6 -12 -8 0 -20 16 -18 26 -21 -114 -4 -138 -3
-135 -26 -135 -11 0 -20 -6 -20 -12 0 -9 -4 -8 -10 2 -6 10 -10 11 -10 3 0 -7
-9 -13 -21 -13 -11 0 -18 -4 -15 -8 3 -5 -5 -8 -17 -7 -29 3 -48 -5 -42 -16 3
-4 -3 -6 -15 -4 -11 2 -22 0 -25 -6 -4 -5 -15 -9 -25 -9 -10 0 -24 -8 -29 -17
-6 -10 -11 -15 -11 -10 0 4 -13 1 -30 -8 -16 -8 -31 -14 -33 -13 -1 2 -13 -7
-27 -19 -13 -13 -30 -23 -37 -23 -7 0 -13 -4 -13 -10 0 -5 -7 -10 -15 -10 -9
0 -18 -7 -21 -15 -4 -8 -11 -15 -18 -15 -22 -1 -232 -217 -231 -239 1 -6 -19
-32 -42 -56 -7 -7 -9 -15 -6 -19 4 -3 2 -6 -4 -6 -6 0 -14 -11 -17 -25 -4 -14
-11 -25 -17 -25 -6 0 -8 -4 -4 -9 3 -5 -2 -17 -11 -25 -8 -9 -13 -16 -9 -16 3
0 -2 -14 -11 -32 -62 -119 -97 -319 -91 -513 3 -77 7 -156 10 -175 14 -80 17
-96 22 -120 3 -14 7 -30 9 -37 1 -7 5 -16 9 -19 4 -4 7 -14 7 -23 0 -9 7 -29
15 -45 8 -15 15 -34 15 -41 0 -7 11 -28 24 -48 13 -19 22 -38 18 -41 -3 -3 0
-6 7 -6 7 0 9 -4 6 -10 -3 -5 -1 -10 4 -10 6 0 11 -5 11 -11 0 -12 59 -92 72
-97 5 -2 8 -8 8 -14 0 -12 125 -138 137 -138 4 0 22 -12 38 -28 35 -30 58 -47
95 -64 14 -7 36 -20 49 -30 13 -10 27 -16 31 -13 4 3 11 -2 14 -11 3 -9 13
-14 20 -11 8 3 16 1 18 -5 2 -6 15 -13 28 -15 13 -2 28 -9 32 -16 4 -6 8 -8 8
-3 0 5 6 4 13 -1 12 -10 105 -43 133 -47 33 -5 37 -24 36 -188 0 -90 0 -183
-1 -207 l-1 -43 -125 6 c-68 4 -134 9 -145 11 -11 2 -22 -1 -25 -6 -4 -5 -10
-7 -15 -4 -5 3 -19 1 -31 -6 -15 -8 -19 -8 -15 0 4 6 3 11 -3 11 -5 0 -13 -5
-16 -10 -5 -8 -11 -8 -19 -1 -8 7 -16 7 -22 1 -5 -5 -31 -11 -57 -12 -26 -2
-47 -6 -47 -10 0 -3 -10 -4 -22 0 -16 4 -19 2 -13 -8 6 -9 4 -11 -6 -5 -11 8
-53 11 -61 5 -2 -1 -19 -3 -38 -6 -19 -3 -51 -7 -70 -9 -19 -3 -44 -5 -54 -6
-11 0 -28 -5 -39 -10 -15 -8 -18 -8 -12 1 6 9 3 9 -13 1 -28 -15 -45 -14 -36
2 4 6 -5 1 -21 -13 -16 -14 -25 -20 -21 -13 4 8 -3 11 -24 11 -16 -1 -30 -5
-30 -10 0 -4 -6 -7 -12 -6 -14 3 -15 -22 -5 -102 11 -91 17 -120 53 -245 3
-11 7 -29 8 -40 2 -11 8 -33 14 -48 7 -16 12 -35 12 -43 0 -8 5 -14 10 -14 6
0 10 -6 10 -14 0 -8 9 -35 20 -60 11 -26 18 -48 17 -49 -1 -2 6 -11 16 -21 9
-10 15 -22 12 -27 -4 -5 -3 -9 2 -9 4 0 24 -27 43 -60 19 -33 38 -60 43 -60 4
0 7 -7 7 -15 0 -9 7 -18 15 -21 8 -4 12 -10 9 -15 -3 -5 3 -9 12 -9 10 0 14
-3 11 -7 -4 -3 16 -28 43 -55 28 -27 50 -54 50 -60 0 -6 3 -9 6 -6 5 6 12 2
68 -49 14 -13 28 -23 31 -23 8 0 69 -44 73 -53 2 -4 8 -5 13 -1 5 3 9 0 9 -6
0 -6 4 -9 8 -6 5 3 19 -4 30 -15 12 -11 22 -17 22 -13 0 3 6 1 13 -5 8 -6 17
-8 20 -4 4 3 7 1 7 -6 0 -7 5 -9 10 -6 6 3 10 1 10 -4 0 -6 3 -10 8 -10 4 1
10 0 15 -1 4 -1 10 -3 15 -5 4 -1 15 -5 26 -10 10 -4 59 -20 110 -35 l91 -26
3 -54 c1 -30 2 -59 2 -65 1 -5 -1 -66 -4 -135 -2 -68 -2 -129 2 -135 10 -15
10 -88 -1 -109 -6 -13 -6 -16 2 -12 6 4 11 3 11 -2 0 -5 6 -9 13 -9 151 -8
235 -17 246 -26 8 -7 12 -7 8 -1 -4 7 26 9 96 7 103 -3 145 7 185 44 7 7 24
16 38 19 13 3 24 9 24 13 0 4 20 15 45 26 25 11 45 23 45 28 0 4 7 7 15 7 9 0
18 7 22 16 3 8 11 13 18 10 8 -3 15 1 17 7 3 7 4 106 3 221 -1 220 2 236 46
236 10 0 19 5 19 10 0 6 5 10 10 10 6 0 29 9 53 19 132 61 176 79 181 73 3 -3
6 0 6 6 0 7 3 11 8 11 17 -4 91 35 85 44 -3 6 -1 7 4 4 6 -4 27 4 47 18 20 13
36 22 36 19 0 -3 6 1 14 8 8 7 27 22 42 33 57 40 137 115 187 175 35 42 108
150 100 150 -4 0 1 6 12 13 10 8 15 19 11 25 -4 7 -2 12 4 12 6 0 8 5 5 10 -3
6 -1 10 5 10 6 0 8 4 5 10 -3 5 -1 10 5 10 6 0 9 4 6 9 -4 5 -3 11 2 13 10 4
59 140 67 183 5 32 11 60 21 98 10 39 12 310 3 372 -10 69 -22 130 -34 175 -1
3 -5 19 -10 35 -4 17 -13 41 -20 55 -23 45 -39 85 -37 93 1 4 -2 7 -8 7 -5 0
-10 5 -10 10 0 18 -64 111 -107 155 -7 7 -9 15 -6 19 4 3 -1 6 -11 6 -9 0 -14
5 -11 10 3 6 1 10 -4 10 -6 0 -24 14 -39 30 -16 17 -34 30 -40 30 -5 0 -13 7
-16 16 -3 8 -10 12 -16 9 -5 -3 -10 -1 -10 4 0 6 -7 11 -15 11 -8 0 -15 4 -15
9 0 8 -20 19 -155 90 -33 17 -65 35 -71 40 -7 6 -15 7 -18 4 -3 -4 -6 0 -6 7
0 7 -3 11 -6 7 -3 -3 -24 5 -45 19 -21 13 -42 24 -46 24 -4 0 -35 13 -68 29
-72 35 -98 45 -107 43 -5 -1 -8 3 -8 9 0 5 -4 8 -9 4 -5 -3 -17 2 -25 11 -23
23 -24 501 -1 501 8 0 15 -4 15 -9 0 -4 5 -8 10 -8 6 0 20 -9 32 -20 12 -10
25 -17 30 -14 4 3 8 1 8 -4 0 -25 102 -69 123 -53 1 2 18 4 37 6 19 2 55 8 80
13 25 6 65 14 90 17 24 4 47 8 51 11 6 4 102 17 127 17 6 0 12 3 12 6 0 3 15
7 33 8 17 2 44 4 60 5 15 1 27 4 27 7 0 3 24 7 53 9 28 2 54 7 55 13 2 5 7 7
12 4 4 -3 10 2 14 10 3 8 1 17 -5 20 -5 4 -7 10 -4 15 7 11 -41 193 -60 231
-9 16 -15 30 -14 31 3 8 -46 108 -53 108 -4 0 -8 8 -8 18 0 10 -9 24 -19 32
-11 7 -18 17 -15 22 3 4 0 8 -5 8 -6 0 -11 6 -11 13 0 6 -18 32 -40 57 -22 25
-40 49 -40 54 0 5 -10 17 -22 27 -11 11 -17 19 -13 19 4 0 -6 14 -24 30 -17
17 -29 36 -25 42 4 7 3 8 -4 4 -7 -4 -12 -1 -12 9 0 9 -4 13 -10 10 -5 -3 -10
-2 -10 3 0 5 -13 23 -30 40 -16 18 -30 34 -30 37 0 4 -27 32 -59 64 -33 33
-58 62 -55 65 2 3 1 4 -3 1 -3 -3 -21 6 -38 20 -18 13 -35 21 -39 18 -3 -4 -6
-1 -6 6 0 7 -13 17 -30 22 -16 6 -30 15 -30 19 0 8 -48 25 -62 22 -5 -1 -8 2
-8 8 0 6 -9 10 -19 10 -11 0 -22 4 -25 9 -6 9 -74 26 -89 22 -5 -1 -6 3 -2 9
3 5 2 10 -3 10 -14 0 -52 36 -45 44 3 3 -1 6 -11 6 -9 0 -14 5 -11 10 3 6 1
10 -6 10 -7 0 -10 3 -7 6 4 3 -11 21 -32 41 -22 19 -42 43 -45 54 -4 10 -12
19 -20 19 -8 0 -16 8 -19 18 -13 39 -81 94 -97 78z"/>
</g>
</svg>
